/* XPM */
static char *collectible_resized[] = {
/* columns rows colors chars-per-pixel */
"64 64 20 1 ",
"  c #073F0D",
". c #5F0000",
"X c #750000",
"o c #12681B",
"O c #146E1D",
"+ c #7D460E",
"@ c #970000",
"# c #910F0F",
"$ c #871A1A",
"% c #B71111",
"& c #C20B0B",
"* c #E61B1B",
"= c #F33636",
"- c #91581D",
"; c #EF7B7B",
": c #02820F",
"> c #009E0F",
", c #07A416",
"< c #0FB91F",
"1 c None",
/* pixels */
"1111111111111111111111111111111111111111111111111111111111111111",
"1111111111111111111111111111111111111111111111111111111111111111",
"1111111111111111111111111111111111111111111111111111111111111111",
"1111111111111111111111111111111111111111111111111111111111111111",
"1111111111111111111111111111111111111111111111111111111111111111",
"1111111111111111111111111111111111111111111111111111111111111111",
"1111111111111111111111111111111111111111111111111111111111111111",
"1111111111111111111111111111111111111111111111111111111111111111",
"1111111111111111111111111111111111111111111111111111111111111111",
"1111111111111111111111111111111111111111111111111111111111111111",
"111111111111111111111111111111111111111111>>> 111111111111111111",
"111111111111111111111111111111111111111>>>><< 111111111111111111",
"111111111111111111111>>>>111111111111>>><<<<< 111111111111111111",
"111111111111111111111><<<> 111111++1>><<<oo<< 111111111111111111",
"111111111111111111111><<<<, 1111+--+><<ooo<<  111111111111111111",
"111111111111111111111><,O<<, 11+---+<<oo<<<  1111111111111111111",
"1111111111111111111111<,OO<<< 1---+<<oo:<<  11111111111111111111",
"1111111111111111111111,,<<OO<, --+<oo:::   111111111111111111111",
"11111111111111111111111 <<<O<<<--oo:::   11111111111111111111111",
"111111111111111111111111 <<OO<<--::    1111111111111111111111111",
"1111111111111111111111@@% <<OO<--:  %%%..11111111111111111111111",
"111111111111111111111@**%%  <OO-- XX%%%%%.1111111111111111111111",
"11111111111111111111@***%%%%   -- X%%%%%%$.111111111111111111111",
"11111111111111111111@****%%%%%%%%%%%%%%%%$.111111111111111111111",
"1111111111111111111@******%%%%%%%%%%%%*%%$$.11111111111111111111",
"1111111111111111111@**===**%%%%%%%%%%**%%$$.11111111111111111111",
"111111111111111111@*==;;===*%%%%%%%%***%%$$$.1111111111111111111",
"111111111111111111@*=;;;;==*********==*%%$$$.1111111111111111111",
"111111111111111111@*=;;;;===*=;;;;==***%%$$$.1111111111111111111",
"111111111111111111@*=;;;;=====**==****%%%$$$.1111111111111111111",
"111111111111111111@*=;;;;===*********%%%%$$&.1111111111111111111",
"111111111111111111@**=;;====********%%%%$$$&.1111111111111111111",
"111111111111111111@%*=====***==****%%%%%$$&&.1111111111111111111",
"111111111111111111@%%********==***%%%%%$$$&&.1111111111111111111",
"1111111111111111111@%%**********%%%%%%%$$&&.11111111111111111111",
"1111111111111111111@%%%%%%%%%%%%%%%%%%$$$&&.11111111111111111111",
"11111111111111111111@%%%%%%%%%%%%%%%%$$$&&.111111111111111111111",
"11111111111111111111@%%%%%%%%%%%%%%%%$$&&&.111111111111111111111",
"111111111111111111111@%%%%%%%%%%%%%%$$&&&#1111111111111111111111",
"1111111111111111111111@@%%%%%%%%%%$$&&&..11111111111111111111111",
"111111111111111111111111@%%%%%%%$$$&&&.1111111111111111111111111",
"1111111111111111111111111@@@%%%$$$&...11111111111111111111111111",
"1111111111111111111111111111.......11111111111111111111111111111",
"1111111111111111111111111111111111111111111111111111111111111111",
"1111111111111111111111111111111111111111111111111111111111111111",
"1111111111111111111111111111111111111111111111111111111111111111",
"1111111111111111111111111111111111111111111111111111111111111111",
"1111111111111111111111111111111111111111111111111111111111111111",
"1111111111111111111111111111111111111111111111111111111111111111",
"1111111111111111111111111111111111111111111111111111111111111111",
"1111111111111111111111111111111111111111111111111111111111111111",
"1111111111111111111111111111111111111111111111111111111111111111",
"1111111111111111111111111111111111111111111111111111111111111111",
"1111111111111111111111111111111111111111111111111111111111111111",
"1111111111111111111111111111111111111111111111111111111111111111",
"1111111111111111111111111111111111111111111111111111111111111111",
"1111111111111111111111111111111111111111111111111111111111111111",
"1111111111111111111111111111111111111111111111111111111111111111",
"1111111111111111111111111111111111111111111111111111111111111111",
"1111111111111111111111111111111111111111111111111111111111111111",
"1111111111111111111111111111111111111111111111111111111111111111",
"1111111111111111111111111111111111111111111111111111111111111111",
"1111111111111111111111111111111111111111111111111111111111111111",
"1111111111111111111111111111111111111111111111111111111111111111"
};
