/* XPM */
static char *exit_resized[] = {
/* columns rows colors chars-per-pixel */
"64 64 175 2 ",
"   c #040506",
".  c #060606",
"X  c #0A0806",
"o  c #130D02",
"O  c #140E03",
"+  c #120E05",
"@  c #150F04",
"#  c #161004",
"$  c #161005",
"%  c #161105",
"&  c #2C1F04",
"*  c #352200",
"=  c #352300",
"-  c #352301",
";  c #372502",
":  c #372503",
">  c #392602",
",  c #382603",
"<  c #392603",
"1  c #382604",
"2  c #392704",
"3  c #3A2704",
"4  c #3A2804",
"5  c #462D00",
"6  c #462E00",
"7  c #472E00",
"8  c #462E01",
"9  c #482F00",
"0  c #482F01",
"q  c #483001",
"w  c #4B3301",
"e  c #483002",
"r  c #493103",
"t  c #4A3203",
"y  c #4B3303",
"u  c #4D3401",
"i  c #4E3501",
"p  c #4E3600",
"a  c #4F3600",
"s  c #4F3700",
"d  c #4C3402",
"f  c #4D3502",
"g  c #4C3403",
"h  c #4E3503",
"j  c #4F3602",
"k  c #4F3804",
"l  c #4F3805",
"z  c #4B380E",
"x  c #4D390E",
"c  c #4C390F",
"v  c #4E3A0F",
"b  c #503700",
"n  c #503602",
"m  c #513800",
"M  c #503801",
"N  c #513801",
"B  c #523800",
"V  c #523901",
"C  c #533901",
"Z  c #513902",
"A  c #523902",
"S  c #533A02",
"D  c #543A02",
"F  c #503904",
"G  c #503905",
"H  c #513A06",
"J  c #533B06",
"K  c #493813",
"L  c #4A3813",
"P  c #4B3913",
"I  c #493814",
"U  c #594100",
"Y  c #5A4100",
"T  c #5B4200",
"R  c #5C4400",
"E  c #5D4400",
"W  c #5E4500",
"Q  c #5F4701",
"!  c #5C490B",
"~  c #5D490B",
"^  c #5C490D",
"/  c #5D490D",
"(  c #5F4C0E",
")  c #5A4310",
"_  c #5C4410",
"`  c #5C4512",
"'  c #5E4612",
"]  c #604801",
"[  c #614801",
"{  c #604D0E",
"}  c #62541E",
"|  c #504628",
" . c #514728",
".. c #514729",
"X. c #524829",
"o. c #4A4535",
"O. c #4B4535",
"+. c #494436",
"@. c #494536",
"#. c #4A4536",
"$. c #544E3F",
"%. c #544F3F",
"&. c #554F3F",
"*. c #595135",
"=. c #6D5320",
"-. c #6F5522",
";. c #67552E",
":. c #68562F",
">. c #705624",
",. c #715725",
"<. c #725724",
"1. c #725824",
"2. c #735926",
"3. c #725927",
"4. c #755B29",
"5. c #755B2A",
"6. c #765C29",
"7. c #655633",
"8. c #6A5831",
"9. c #6B5831",
"0. c #6E5B32",
"q. c #6F5C33",
"w. c #705C32",
"e. c #715D33",
"r. c #7E6B2E",
"t. c #7F6B2E",
"y. c #7E6B30",
"u. c #7F6B30",
"i. c #554F40",
"p. c #645C40",
"a. c #786642",
"s. c #796742",
"d. c #786643",
"f. c #786743",
"g. c #796743",
"h. c #796744",
"j. c #7A6843",
"k. c #7A6844",
"l. c #816E31",
"z. c #826F31",
"x. c #847641",
"c. c #887957",
"v. c #96835D",
"b. c #97845E",
"n. c #97845F",
"m. c #988661",
"M. c #998661",
"N. c #9A8762",
"B. c #A69864",
"V. c #AB9C7B",
"C. c #BBB195",
"Z. c #BBB196",
"A. c #BCB295",
"S. c #BCB296",
"D. c #BDB396",
"F. c #C4BCA3",
"G. c #CFC7AE",
"H. c #D7D1C6",
"J. c #D7D1C7",
"K. c #D8D2C6",
"L. c #D8D2C7",
"P. c #D8D3C8",
"I. c #D8D3C9",
"U. c #D9D4C8",
"Y. c #D9D4CA",
"T. c #D9D5CA",
"R. c #DAD5CA",
"E. c #E1DBD0",
"W. c #E1DCD1",
"Q. c #E2DCD0",
"!. c #E2DCD1",
"~. c #E3DED2",
"^. c #E4DED3",
"/. c #E5DFD4",
"(. c None",
/* pixels */
"(.(.(.(.(.(.(.(.(.(.(.(.(.(.(.(.(.(.(.(.(.(.(.(.(.(.(.(.(.(.(.(.(.(.(.(.(.(.(.(.(.(.(.(.(.(.(.(.(.(.(.(.(.(.(.(.(.(.(.(.(.(.(.(.",
"(.(.(.(.(.(.(.(.(.(.(.(.(.(.(.(.(.(.(.(.(.(.(.(.(.(.(.(.(.(.(.(.(.(.(.(.(.(.(.(.(.(.(.(.(.(.(.(.(.(.(.(.(.(.(.(.(.(.(.(.(.(.(.(.",
"(.(.(.(.(.(.(.(.(.(.(.(.(.(.(.(.(.(.(.(.(.(.(.(.(.(.(.(.(.(.(.(.(.(.(.(.(.(.(.(.(.(.(.(.(.(.(.(.(.(.(.(.(.(.(.(.(.(.(.(.(.(.(.(.",
"(.(.(.(.(.(.(.(.(.(.(.(.(.(.(.(.(.(.(.(.(.(.(.(.(.(.(.(.(.(.(.(.(.(.(.(.(.(.(.(.(.(.(.(.(.(.(.(.(.(.(.(.(.(.(.(.(.(.(.(.(.(.(.(.",
"(.(.(.(.(.(.(.(.(.(.(.(.(.(.(.(.X                                                               (.(.(.(.(.(.(.(.(.(.(.(.(.(.(.(.",
"(.(.(.(.(.(.(.(.(.(.(.(.(.(.(.(.  X + $ # # # # # # # # # # # # % # # # # # # # # # # # $ $ X X (.(.(.(.(.(.(.(.(.(.(.(.(.(.(.(.",
"(.(.(.(.(.(.(.(.(.(.(.(.(.(.(.(.  $ & > 2 > > > > > > > > 4 2 4 4 1 4 1 1 > 4 > > > ; > 2 & X X (.(.(.(.(.(.(.(.(.(.(.(.(.(.(.(.",
"(.(.(.(.(.(.(.(.(.(.(.(.(.(.(.(.  # 4 k D J P P P P P P G N u y y g N J x P P P P x l N k 2 $   (.(.(.(.(.(.(.(.(.(.(.(.(.(.(.(.",
"(.(.(.(.(.(.(.(.(.(.(.(.(.(.(.(.  # 1 D [ { ..#.O.O.O.| / E N t y G [ { ..+.#.#.#...^ Q D > #   (.(.(.(.(.(.(.(.(.(.(.(.(.(.(.(.",
"(.(.(.(.(.(.(.(.(.(.(.(.(.(.(.(.  # 1 G ( =.*.i.i.$.$.p.x.l.` e r l ^ =.*.%.%.%.%.p.x.z.' ; $   (.(.(.(.(.(.(.(.(.(.(.(.(.(.(.(.",
"(.(.(.(.(.(.(.(.(.(.(.(.(.(.(.(.  # > x ..*.7.8.8.7.;.c.F.S.q.5 e P ..*.8.8.8.:.;.c.F.D.q.* o   (.(.(.(.(.(.(.(.(.(.(.(.(.(.(.(.",
"(.(.(.(.(.(.(.(.(.(.(.(.(.(.(.(.  # > P +.i.8.5.4.2.3.m.~.H.a.5 6 I +.i.8.4.4.2.,.m.~.K.s.* o   (.(.(.(.(.(.(.(.(.(.(.(.(.(.(.(.",
"(.(.(.(.(.(.(.(.(.(.(.(.(.(.(.(.  # > P O.&.8.4.4.2.1.N.~.H.a.5 e K #.%.8.4.5.2.,.m.^.K.j.* o   (.(.(.(.(.(.(.(.(.(.(.(.(.(.(.(.",
"(.(.(.(.(.(.(.(.(.(.(.(.(.(.(.(.  # > P O.&.8.4.4.3.3.n.E.H.a.5 6 K o.%.8.4.5.2.,.m.Q.K.s.* o   (.(.(.(.(.(.(.(.(.(.(.(.(.(.(.(.",
"(.(.(.(.(.(.(.(.(.(.(.(.(.(.(.(.  # > P O.&.8.4.4.3.<.n.E.H.a.5 e K +.%.8.4.5.2.,.m.E.K.s.* #   (.(.(.(.(.(.(.(.(.(.(.(.(.(.(.(.",
"(.(.(.(.(.(.(.(.(.(.(.(.(.(.(.(.  # > P O.&.8.4.4.3.,.N.~.H.a.5 6 K o.%.8.5.5.2.,.m.E.K.s.* o   (.(.(.(.(.(.(.(.(.(.(.(.(.(.(.(.",
"(.(.(.(.(.(.(.(.(.(.(.(.(.(.(.(.  # > P O.&.8.4.5.3.,.m.~.H.a.5 5 L o.&.8.4.4.3.1.n.Q.K.d.* o   (.(.(.(.(.(.(.(.(.(.(.(.(.(.(.(.",
"(.(.(.(.(.(.(.(.(.(.(.(.(.(.(.(.  # > P O.&.8.4.5.3.,.m.R.H.a.5 9 L o.&.8.4.4.3.1.b.Q.L.f.* o   (.(.(.(.(.(.(.(.(.(.(.(.(.(.(.(.",
"(.(.(.(.(.(.(.(.(.(.(.(.(.(.(.(.  # > P O.&.8.4.5.3.,.m.^.H.j.5 5 P o.&.8.4.4.3.,.N.Q.L.f.* o   (.(.(.(.(.(.(.(.(.(.(.(.(.(.(.(.",
"(.(.(.(.(.(.(.(.(.(.(.(.(.(.(.(.  # > P O.&.8.4.5.3.,.m.~.H.a.5 9 L o.&.8.4.4.3.,.N.E.K.f.* o   (.(.(.(.(.(.(.(.(.(.(.(.(.(.(.(.",
"(.(.(.(.(.(.(.(.(.(.(.(.(.(.(.(.  # > P O.&.8.4.4.3.3.m.~.H.a.5 5 L O.&.8.4.4.3.,.m.E.L.f.* o . (.(.(.(.(.(.(.(.(.(.(.(.(.(.(.(.",
"(.(.(.(.(.(.(.(.(.(.(.(.(.(.(.(.  # > P O.&.8.4.4.3.-.N.E.H.a.5 9 P O.&.8.4.4.3.,.m.E.L.f.* o . (.(.(.(.(.(.(.(.(.(.(.(.(.(.(.(.",
"(.(.(.(.(.(.(.(.(.(.(.(.(.(.(.(.  # > P O.&.8.4.4.3.3.N.E.H.a.5 5 L o.&.8.4.4.3.2.n.E.K.f.* o   (.(.(.(.(.(.(.(.(.(.(.(.(.(.(.(.",
"(.(.(.(.(.(.(.(.(.(.(.(.(.(.(.(.  # > P O.&.8.4.4.3.-.n.E.H.a.5 5 L o.&.8.4.4.2.<.n.Q.K.d.* o   (.(.(.(.(.(.(.(.(.(.(.(.(.(.(.(.",
"(.(.(.(.(.(.(.(.(.(.(.(.(.(.(.(.  # > P O.i.8.4.4.3.,.N.~.H.a.5 9 P o.i.8.4.4.3.,.n.Q.L.s.* o . (.(.(.(.(.(.(.(.(.(.(.(.(.(.(.(.",
"(.(.(.(.(.(.(.(.(.(.(.(.(.(.(.(.  # > P O.i.;.3.3.,.-.v.~.L.a.5 5 L o.$.;.3.3.-.<.b.Q.L.s.* o . (.(.(.(.(.(.(.(.(.(.(.(.(.(.(.(.",
"(.(.(.(.(.(.(.(.(.(.(.(.(.(.(.(.  # > P O.i.;.,.,.-.=.v.R.Y.f.5 9 K O.i.;.,.3.-.} b.~.H.s.* o . (.(.(.(.(.(.(.(.(.(.(.(.(.(.(.(.",
"(.(.(.(.(.(.(.(.(.(.(.(.(.(.(.(.  # > x  .p.c.N.N.n.v.V.G.S.q.5 9 x | p.c.N.N.n.n.V.G.S.e.= o . (.(.(.(.(.(.(.(.(.(.(.(.(.(.(.(.",
"(.(.(.(.(.(.(.(.(.(.(.(.(.(.(.(.  # 1 G ~ x.F./.~.~.^.G.B.r.) e t l ~ x.F./.~.~.~.G.B.t.` 1 #   (.(.(.(.(.(.(.(.(.(.(.(.(.(.(.(.",
"(.(.(.(.(.(.(.(.(.(.(.(.(.(.(.(.  # 1 N E l.S.Y.I.I.Y.S.y.U u t t u R l.S.Y.I.Y.Y.S.y.U u 2 %   (.(.(.(.(.(.(.(.(.(.(.(.(.(.(.(.",
"(.(.(.(.(.(.(.(.(.(.(.(.(.(.(.(.  # 1 g N ` 0.h.h.f.h.0.) u t t t w u ' 0.h.f.f.j.q.) u u 4 %   (.(.(.(.(.(.(.(.(.(.(.(.(.(.(.(.",
"(.(.(.(.(.(.(.(.(.(.(.(.(.(.(.(.  # 1 y t t 5 5 5 5 5 5 e y t t t t t t 5 5 5 5 5 5 t t t 4 #   (.(.(.(.(.(.(.(.(.(.(.(.(.(.(.(.",
"(.(.(.(.(.(.(.(.(.(.(.(.(.(.(.(.  # 4 g t t 5 5 e 5 5 5 t t t t t t t e e 5 5 e 5 e e t t > #   (.(.(.(.(.(.(.(.(.(.(.(.(.(.(.(.",
"(.(.(.(.(.(.(.(.(.(.(.(.(.(.(.(.  # 1 u N J P K P P P z k u t t t u k J z P P P P z l k u > #   (.(.(.(.(.(.(.(.(.(.(.(.(.(.(.(.",
"(.(.(.(.(.(.(.(.(.(.(.(.(.(.(.(.  % > N [ ( X.O.+.O.O.| ~ R k t t N Q ( ..O.+.+.O.| ^ E N 4 #   (.(.(.(.(.(.(.(.(.(.(.(.(.(.(.(.",
"(.(.(.(.(.(.(.(.(.(.(.(.(.(.(.(.  # > J ( } *.i.i.i.$.p.x.l.` e e G ( } *.%.$.$.$.p.x.z.' ; #   (.(.(.(.(.(.(.(.(.(.(.(.(.(.(.(.",
"(.(.(.(.(.(.(.(.(.(.(.(.(.(.(.(.  # 1 P X.*.7.8.8.8.;.c.F.S.q.5 5 z X.*.7.8.8.:.;.c.F.S.q.* #   (.(.(.(.(.(.(.(.(.(.(.(.(.(.(.(.",
"(.(.(.(.(.(.(.(.(.(.(.(.(.(.(.(.  # > P O.i.8.4.3.3.<.N.E.H.d.5 e I O.i.8.4.4.3.3.m.~.H.s.* o   (.(.(.(.(.(.(.(.(.(.(.(.(.(.(.(.",
"(.(.(.(.(.(.(.(.(.(.(.(.(.(.(.(.  # > P O.&.8.4.4.3.,.m.~.H.a.5 5 P O.&.8.4.4.3.,.m.~.K.s.* o   (.(.(.(.(.(.(.(.(.(.(.(.(.(.(.(.",
"(.(.(.(.(.(.(.(.(.(.(.(.(.(.(.(.  # > P O.&.8.4.4.3.,.m.~.H.a.5 5 P O.&.8.4.4.3.,.m.W.K.s.* o   (.(.(.(.(.(.(.(.(.(.(.(.(.(.(.(.",
"(.(.(.(.(.(.(.(.(.(.(.(.(.(.(.(.  # > P O.&.8.4.4.3.3.m.~.H.a.5 5 P +.$.8.2.4.3.3.m.E.K.s.* o   (.(.(.(.(.(.(.(.(.(.(.(.(.(.(.(.",
"(.(.(.(.(.(.(.(.(.(.(.(.(.(.(.(.  # > P O.&.8.4.4.3.,.m.E.H.a.5 e P o.%.8.4.4.3.,.m.E.K.s.* o   (.(.(.(.(.(.(.(.(.(.(.(.(.(.(.(.",
"(.(.(.(.(.(.(.(.(.(.(.(.(.(.(.(.  # > P O.&.8.4.3.3.,.N.E.H.f.5 5 P o.&.8.4.5.3.3.N.E.K.s.* o   (.(.(.(.(.(.(.(.(.(.(.(.(.(.(.(.",
"(.(.(.(.(.(.(.(.(.(.(.(.(.(.(.(.  # > P O.&.8.4.4.3.,.n.E.H.a.5 5 P o.&.8.4.5.3.1.n.E.K.s.* o   (.(.(.(.(.(.(.(.(.(.(.(.(.(.(.(.",
"(.(.(.(.(.(.(.(.(.(.(.(.(.(.(.(.  # > P O.&.8.4.4.3.3.N.E.J.a.5 e P o.&.8.4.5.3.1.n.Q.K.j.; o   (.(.(.(.(.(.(.(.(.(.(.(.(.(.(.(.",
"(.(.(.(.(.(.(.(.(.(.(.(.(.(.(.(.  # > P O.&.8.4.4.3.<.n.E.J.a.5 5 K o.&.8.4.5.3.3.m.Q.K.s.* o   (.(.(.(.(.(.(.(.(.(.(.(.(.(.(.(.",
"(.(.(.(.(.(.(.(.(.(.(.(.(.(.(.(.  # > P O.&.8.4.4.3.3.n.E.H.a.5 5 P +.%.8.4.5.3.,.m.E.K.s.* o   (.(.(.(.(.(.(.(.(.(.(.(.(.(.(.(.",
"(.(.(.(.(.(.(.(.(.(.(.(.(.(.(.(.  # > P O.&.8.4.4.3.1.n.E.H.f.5 e P o.%.8.5.5.3.,.n.Q.K.s.* o   (.(.(.(.(.(.(.(.(.(.(.(.(.(.(.(.",
"(.(.(.(.(.(.(.(.(.(.(.(.(.(.(.(.  # > P #.i.9.4.4.3.,.N.E.L.f.5 5 L o.&.9.4.6.4.2.n.E.K.f.* o   (.(.(.(.(.(.(.(.(.(.(.(.(.(.(.(.",
"(.(.(.(.(.(.(.(.(.(.(.(.(.(.(.(.  # > P #.&.9.4.4.,.,.N.E.H.f.5 9 L o.&.9.6.4.1.3.n.Q.K.f.* o   (.(.(.(.(.(.(.(.(.(.(.(.(.(.(.(.",
"(.(.(.(.(.(.(.(.(.(.(.(.(.(.(.(.  # > P #.&.9.4.4.,.,.m.E.H.f.5 9 L o.i.9.4.6.1.<.n.E.L.s.* o   (.(.(.(.(.(.(.(.(.(.(.(.(.(.(.(.",
"(.(.(.(.(.(.(.(.(.(.(.(.(.(.(.(.  # > P #.&.:.2.3.,.=.v.E.J.a.5 5 L o.i.8.1.<.<.<.n.~.L.j.* o   (.(.(.(.(.(.(.(.(.(.(.(.(.(.(.(.",
"(.(.(.(.(.(.(.(.(.(.(.(.(.(.(.(.  # > P #.i.:.1.,.<.=.v.E.L.f.5 9 K o.i.;.1.1.<.} b.Q.K.f.* o   (.(.(.(.(.(.(.(.(.(.(.(.(.(.(.(.",
"(.(.(.(.(.(.(.(.(.(.(.(.(.(.(.(.  # > x  .p.c.N.N.v.b.V.G.S.e.5 9 z | p.c.N.n.n.n.V.G.A.w.* o   (.(.(.(.(.(.(.(.(.(.(.(.(.(.(.(.",
"(.(.(.(.(.(.(.(.(.(.(.(.(.(.(.(.  # 1 n ~ x.F./.^.^.^.G.B.r.) 9 9 n ! x.F.^.^.^.^.G.B.l.' ; #   (.(.(.(.(.(.(.(.(.(.(.(.(.(.(.(.",
"(.(.(.(.(.(.(.(.(.(.(.(.(.(.(.(.  % 1 b ] z.S.R.I.I.Y.S.r.U b t y b E l.D.R.R.K.R.D.l.D N 1 #   (.(.(.(.(.(.(.(.(.(.(.(.(.(.(.(.",
"(.(.(.(.(.(.(.(.(.(.(.(.(.(.(.(.  % 4 b C ' e.k.f.h.h.e.' b u y y y C ' w.k.k.k.h.w.' b u 1 %   (.(.(.(.(.(.(.(.(.(.(.(.(.(.(.(.",
"(.(.(.(.(.(.(.(.(.(.(.(.(.(.(.(.  + & 4 1 1 = = * * * * > 1 1 1 1 1 1 1 = * * * * ; ; > 4 & +   (.(.(.(.(.(.(.(.(.(.(.(.(.(.(.(.",
"(.(.(.(.(.(.(.(.(.(.(.(.(.(.(.(.  X + % + # o o o o o o + + % % % % % + o o o o + o # # # + X   (.(.(.(.(.(.(.(.(.(.(.(.(.(.(.(.",
"(.(.(.(.(.(.(.(.(.(.(.(.(.(.(.(.  X                     . X                                   X (.(.(.(.(.(.(.(.(.(.(.(.(.(.(.(.",
"(.(.(.(.(.(.(.(.(.(.(.(.(.(.(.(.(.(.(.(.(.(.(.(.(.(.(.(.(.(.(.(.(.(.(.(.(.(.(.(.(.(.(.(.(.(.(.(.(.(.(.(.(.(.(.(.(.(.(.(.(.(.(.(.",
"(.(.(.(.(.(.(.(.(.(.(.(.(.(.(.(.(.(.(.(.(.(.(.(.(.(.(.(.(.(.(.(.(.(.(.(.(.(.(.(.(.(.(.(.(.(.(.(.(.(.(.(.(.(.(.(.(.(.(.(.(.(.(.(.",
"(.(.(.(.(.(.(.(.(.(.(.(.(.(.(.(.(.(.(.(.(.(.(.(.(.(.(.(.(.(.(.(.(.(.(.(.(.(.(.(.(.(.(.(.(.(.(.(.(.(.(.(.(.(.(.(.(.(.(.(.(.(.(.(.",
"(.(.(.(.(.(.(.(.(.(.(.(.(.(.(.(.(.(.(.(.(.(.(.(.(.(.(.(.(.(.(.(.(.(.(.(.(.(.(.(.(.(.(.(.(.(.(.(.(.(.(.(.(.(.(.(.(.(.(.(.(.(.(.(."
};
