/* XPM */
static char *player_resized[] = {
/* columns rows colors chars-per-pixel */
"58 64 191 2 ",
"   c #613A0F",
".  c #613A10",
"X  c #603912",
"o  c #603913",
"O  c #5A3523",
"+  c #593524",
"@  c #472A4F",
"#  c #482B4F",
"$  c #472A51",
"%  c #9A090E",
"&  c #9C080D",
"*  c #9A0C10",
"=  c #A73528",
"-  c #D0131B",
";  c #D1141C",
":  c #D0161C",
">  c #D1161C",
",  c #EF1C25",
"<  c #D62F29",
"1  c #EF2228",
"2  c #B25538",
"3  c #B95538",
"4  c #F14037",
"5  c #BA6541",
"6  c #C47248",
"7  c #F46447",
"8  c #F4764F",
"9  c #EA7B50",
"0  c #F57B52",
"q  c #F68A59",
"w  c #E89F61",
"e  c #F89E62",
"r  c #E6A364",
"t  c #F8A666",
"y  c #F5A967",
"u  c #F0AD68",
"i  c #F5B26B",
"p  c #F9B06B",
"a  c #F9B46A",
"s  c #F9B56B",
"d  c #F9B36C",
"f  c #F9B56C",
"g  c #F9B66C",
"h  c #F9B66D",
"j  c #F9B76D",
"k  c #FAB66D",
"l  c #FAB76D",
"z  c #F9B66E",
"x  c #F8B76E",
"c  c #F9B76E",
"v  c #FAB76E",
"b  c #F9B86E",
"n  c #F9B96E",
"m  c #FAB86E",
"M  c #FAB96E",
"N  c #F9B870",
"B  c #F9B871",
"V  c #FAB871",
"C  c #F9B872",
"Z  c #F9B972",
"A  c #F9B973",
"S  c #FAB972",
"D  c #FABA75",
"F  c #F9BB76",
"G  c #FABB76",
"H  c #FABB77",
"J  c #FBBC78",
"K  c #FABD7B",
"L  c #FBBE7B",
"P  c #FABE7C",
"I  c #FBBE7C",
"U  c #FABE7D",
"Y  c #FBBF7E",
"T  c #FBC07F",
"R  c #FCC07F",
"E  c #0302F7",
"W  c #0302F8",
"Q  c #0303FD",
"!  c #0000FF",
"~  c #0202FE",
"^  c #0504FD",
"/  c #0706FC",
"(  c #0806FB",
")  c #0907FB",
"_  c #100DF8",
"`  c #1712F4",
"'  c #1A14F3",
"]  c #1A15F3",
"[  c #1E17F1",
"{  c #1C16F2",
"}  c #241CEE",
"|  c #3429E7",
" . c #392DE4",
".. c #3026E8",
"X. c #4637DE",
"o. c #4C3CDB",
"O. c #4E3DDB",
"+. c #4334E0",
"@. c #4335E0",
"#. c #6952CE",
"$. c #6953CE",
"%. c #6A53CE",
"&. c #7B60C6",
"*. c #7E63C4",
"=. c #9A79B7",
"-. c #9E7CB5",
";. c #9F7CB5",
":. c #9171BC",
">. c #A37FB3",
",. c #A07EB4",
"<. c #A17EB4",
"1. c #8266C2",
"2. c #919293",
"3. c #B48DAB",
"4. c #B18BAC",
"5. c #BE95A6",
"6. c #A480B3",
"7. c #A884B0",
"8. c #AA85B0",
"9. c #A2A3A4",
"0. c #B6B7B7",
"q. c #D2A59D",
"w. c #D5A79C",
"e. c #D6A89B",
"r. c #DBAC99",
"t. c #EFBB8F",
"y. c #F3BE8D",
"u. c #F1BD8F",
"i. c #F2BD8E",
"p. c #E7B593",
"a. c #E3B195",
"s. c #E1B096",
"d. c #EBB892",
"f. c #EEBA90",
"g. c #C298A4",
"h. c #FBC182",
"j. c #FAC183",
"k. c #FCC180",
"l. c #FCC283",
"z. c #FAC285",
"x. c #FDC486",
"c. c #FDC487",
"v. c #FDC587",
"b. c #FFC987",
"n. c #FFCA87",
"m. c #F6C08C",
"M. c #F6C18C",
"N. c #F9C38B",
"B. c #FBC488",
"V. c #FBC58A",
"C. c #FDC588",
"Z. c #FDC688",
"A. c #FDC689",
"S. c #FDC789",
"D. c #FEC788",
"F. c #FFC788",
"G. c #FEC689",
"H. c #FEC789",
"J. c #FCC58A",
"K. c #F8C28C",
"L. c #FAC58C",
"P. c #FAC68D",
"I. c #FBC68D",
"U. c #FBC78E",
"Y. c #FDC888",
"T. c #FFC888",
"R. c #FBC993",
"E. c #FBCB96",
"W. c #FCCC98",
"Q. c #FCCD99",
"!. c #FDD4A7",
"~. c #FCDBB7",
"^. c #F8DABA",
"/. c #FCDEBD",
"(. c #DFD6CE",
"). c #E8DCCF",
"_. c #EFDFCD",
"`. c #F6DCC0",
"'. c #FDE3C6",
"]. c #E6E4E2",
"[. c #EEEAE6",
"{. c #EEECEB",
"}. c #FEF2E4",
"|. c #F3F0EC",
" X c #FEF5EC",
".X c #FFF6ED",
"XX c #FEFAF5",
"oX c #F7F8F9",
"OX c #FDFCFA",
"+X c white",
"@X c None",
/* pixels */
"@X@X@X@X@X@X@X@X@X@X@X@X@X@X@X@X@X@X@X@X@X@X@X@X@X@X@X@X@X@X@X@X@X@X@X@X@X@X@X@X@X@X@X@X@X@X@X@X@X@X@X@X@X@X@X@X@X@X",
"@X@X@X@X@X@X@X@X@X@X@X@X@X@X@X@X@X@X@X@X@X@X@X@X@X@X@X@X@X@X@X@X@X@X@X@X@X@X@X@X@X@X@X@X@X@X@X@X@X@X@X@X@X@X@X@X@X@X",
"@X@X@X@X@X@X@X@X@X@X@X@X@X@X@X@X@X@X@X@X@X@X@X@X@X@X@X@X@X@X@X@X@X@X@X@X@X@X@X@X@X@X@X@X@X@X@X@X@X@X@X@X@X@X@X@X@X@X",
"@X@X@X@X@X@X@X@X@X@X@X@X@X@X@X@X@X@X@X@X@X@X@X@X@X@X@X@X@X@X@X@X@X@X@X@X@X@X@X@X@X@X@X@X@X@X@X@X@X@X@X@X@X@X@X@X@X@X",
"@X@X@X@X@X@X@X@X@X@X@X@X@X@X@X@X@X@X@X@X@X@X@X@X@X@X@X@X@X@X@X@X@X@X@X@X@X@X@X@X@X@X@X@X@X@X@X@X@X@X@X@X@X@X@X@X@X@X",
"@X@X@X@X@X@X@X@X@X@X@X@X@X@X@X@X@X@X@X@X@X@X@X@X@Xl l n l l d l @X@X@X@X@X@X@X@X@X@X@X@X@X@X@X@X@X@X@X@X@X@X@X@X@X@X",
"@X@X@X@X@X@X@X@X@X@X@X@X@X@X@X@X@X@X@X@X@X@X@Xn l l d x l d x x l l @X@X@X@X@X@X@X@X@X@X@X@X@X@X@X@X@X@X@X@X@X@X@X@X",
"@X@X@X@X@X@X@X@X@X@X@X@X@X@X@X@X@X@X@X@X@X@Xx d l l d d l d l d l l C @X@X@X@X@X@X@X@X@X@X@X@X@X@X@X@X@X@X@X@X@X@X@X",
"@X@X@X@X@X@X@X@X@X@X@X@X@X@X@X@X@X@X@X@X@Xl x x x d d l x d l l d n l d @X@X@X@X@X@X@X@X@X@X@X@X@X@X@X@X@X@X@X@X@X@X",
"@X@X@X@X@X@X@X@X@X@X@X@X@X@X@X@X@X@X@X@Xl l d a a l x x n d a s d x l x @X@X@X@X@X@X@X@X@X@X@X@X@X@X@X@X@X@X@X@X@X@X",
"@X@X@X@X@X@X@X@X@X@X@X@X@X@X@X@X@X@X@X@Xl l d c.Q.j.d d l F E.E.H d d x l @X@X@X@X@X@X@X@X@X@X@X@X@X@X@X@X@X@X@X@X@X",
"@X@X@X@X@X@X@X@X@X@X@X@X@X@X@X@X@X@X@X@Xd d E. X{.).L.a C '.OX].`.F d l l @X@X@X@X@X@X@X@X@X@X@X@X@X@X@X@X@X@X@X@X@X",
"@X@X@X@X@X@X@X@X@X@X@X@X@X@X@X@X@X@X@Xl x a ~.+X0.9.!.s Y  XoX2.(.T a x l @X@X@X@X@X@X@X@X@X@X@X@X@X@X@X@X@X@X@X@X@X",
"@X@X@X@X@X@X@X@X@X@X@X@X@X@X@X@X@X@X@Xl x d I.}.|._.j.s N /.XX[.^.C x d l @X@X@X@X@X@X@X@X@X@X@X@X@X@X@X@X@X@X@X@X@X",
"@X@X@X@X@X@X@X@X@X@X@X@X@X@X@X@X@X@X@Xn d x d T U.K s n l C L.I.C s l l l @X@X@X@X@X@X@X@X@X@X@X@X@X@X@X@X@X@X@X@X@X",
"@X@X@X@X@X@X@X@X@X@X@X@X@X@X@X@X@X@X@X@Xd x n d a a l n n n s l x n d x l @X@X@X@X@X@X@X@X@X@X@X@X@X@X@X@X@X@X@X@X@X",
"@X@X@X@X@X@X@X@X@X@X@X@X@X@X@X@X@X@X@X@Xl l l l l l t 0 8 q y n n x d l l @X@X@X@X@X@X@X@X@X@X@X@X@X@X@X@X@X@X@X@X@X",
"@X@X@X@X@X@X@X@X@X@XA.A.@X@X@X@X@X@X@X@Xl l l d n e 4 , , 1 7 l l d d l l @X@X@X@X@X@X@X@X@X@X@X@X@X@X@X@X@X@X@X@X@X",
"@X@X@X@X@X@X@X@XA.A.A.A.A.A.@X@X@X@X@X@XK n l d n 9 ; > : - < y d x l N j.@X@X@X@X@X@X@XA.A.A.A.@X@X@X@X@X@X@X@X@X@X",
"@X@X@X@X@X@X@XA.A.A.A.A.v.A.A.@X@X@X@XA.c.K d d l w = % & % 3 i l l l Y A.A.@X@X@X@X@XA.A.A.A.A.A.A.@X@X@X@X@X@X@X@X",
"@X@X@X@X@X@XA.A.A.A.A.A.A.v.A.@X@XA.A.A.A.c.H l s l r 5 2 6 u l d n K A.A.A.A.A.@X@XA.A.A.A.A.A.A.A.@X@X@X@X@X@X@X@X",
"@X@X@X@X@X@XA.A.A.A.A.A.A.A.v.A.A.A.A.A.A.A.v.K C l l n d l l l C j.A.A.A.A.A.A.A.A.A.A.A.A.A.A.A.A.A.@X@X@X@X@X@X@X",
"@X@X@X@X@X@XA.A.A.A.A.A.A.A.A.v.A.A.A.A.A.A.A.A.l.K H C C C F Y v.A.A.A.A.A.A.A.A.A.A.A.A.A.A.A.A.A.A.@X@X@X@X@X@X@X",
"@X@X@X@X@X@XA.A.A.A.A.A.A.A.A.A.A.v.v.A.A.A.v.A.A.Y.v.v.v.v.A.A.A.A.A.A.A.A.A.A.A.A.A.A.A.A.A.A.A.A.A.@X@X@X@X@X@X@X",
"@X@X@X@X@X@XA.b.b.b.b.A.A.A.A.A.A.A.A.A.A.A.A.A.A.A.A.A.A.A.A.A.A.A.A.A.A.A.A.A.A.A.A.A.A.A.A.A.A.A.A.@X@X@X@X@X@X@X",
"@X@X@X@X@X@X@X3.8.8.g.A.A.A.A.A.A.A.A.A.A.A.A.A.A.A.A.A.A.A.A.A.A.A.A.A.A.A.A.A.A.A.A.A.A.b.b.b.A.A.@X@X@X@X@X@X@X@X",
"@X@X@X@X@X@X@X( Q ! o.N.A.A.A.A.A.A.A.A.A.A.A.A.A.A.A.A.A.A.A.A.A.A.A.A.A.A.A.A.A.A.A.Y.f.8.<.6.a.Y.@X@X@X@X@X@X@X@X",
"@X@X@X@X@X@X@X! ! ! +.M.A.A.A.A.A.A.A.A.A.A.A.A.A.A.A.A.A.A.A.A.A.A.A.A.A.A.A.A.A.A.A.Y.d.| ! Q @X@X@X@X@X@X@X@X@X@X",
"@X@X@X@X@X@X@X! ! ! ) @XA.A.A.A.A.A.A.A.A.A.A.A.A.A.A.A.A.A.A.A.A.A.A.A.A.A.A.A.A.A.A.A.A.%.! ! @X@X@X@X@X@X@X@X@X@X",
"@X@X@X@X@X@X@X! ! ! ! @XA.A.A.A.A.A.A.A.A.A.A.A.A.A.A.A.A.A.A.A.A.A.A.A.A.A.A.A.A.A.A.A.b.:.! ! @X@X@X@X@X@X@X@X@X@X",
"@X@X@X@X@X@X@X! ! ! ! @XA.A.A.A.A.A.A.A.A.A.A.A.A.A.A.A.A.A.A.A.A.A.A.A.A.A.A.A.A.A.A.A.b.<.! ! @X@X@X@X@X@X@X@X@X@X",
"@X@X@X@X@X@X@X! ! ! ! @XA.A.A.A.A.A.A.A.A.A.A.A.A.A.A.A.A.A.A.A.A.A.A.A.A.A.A.A.A.A.A.A.b.=.! ! @X@X@X@X@X@X@X@X@X@X",
"@X@X@X@X@X@X@X! ! ! ! @XA.A.A.A.A.A.A.A.A.A.A.A.A.A.A.A.A.A.A.A.A.A.A.A.A.A.A.A.A.A.A.A.b.*.! ! @X@X@X@X@X@X@X@X@X@X",
"@X@X@X@X@X@X@X! ! ! ! @XA.A.A.A.A.A.A.A.A.A.A.A.A.A.A.A.A.A.A.A.A.A.A.A.A.A.A.A.A.A.A.A.M.o.! ! @X@X@X@X@X@X@X@X@X@X",
"@X@X@X@X@X@X@X! ! ! ! @XA.A.A.A.A.A.A.A.A.A.A.A.A.A.A.A.A.A.A.A.A.A.A.A.A.A.A.A.A.A.A.Y.e.' ! ! @X@X@X@X@X@X@X@X@X@X",
"@X@X@X@X@X@X@X! ! ! ! @X@XA.A.A.A.A.A.A.A.A.A.A.A.A.A.A.A.A.A.A.A.A.A.A.A.A.A.A.A.A.A.b.;.Q ! ! @X@X@X@X@X@X@X@X@X@X",
"@X@X@X@X@X@X@X! ! ! ! @X@XA.A.A.A.A.A.A.A.A.A.A.A.A.A.A.A.A.A.A.A.A.A.A.A.A.A.A.A.A.A.b.X.! ! ! @X@X@X@X@X@X@X@X@X@X",
"@X@X@X@X@X@X@X! ! ! ! @X@X@XA.A.A.A.A.A.A.A.A.A.A.A.A.A.A.A.A.A.A.A.A.A.A.A.A.A.A.A.A.@X@X! ! ! @X@X@X@X@X@X@X@X@X@X",
"@X@X@X@X@X@X@X! ! ! ! @X@X@X@XA.A.A.A.A.A.A.A.A.A.A.A.A.A.A.A.A.A.A.A.A.A.A.A.A.A.A.A.@X@X! ! ! @X@X@X@X@X@X@X@X@X@X",
"@X@X@X@X@X@X@X[ ` ` } @X@X@X@X@XA.A.A.A.A.A.A.A.A.A.A.A.A.A.A.A.A.A.A.A.A.A.A.A.A.A.@X@X@X[ +. .@X@X@X@X@X@X@X@X@X@X",
"@X@X@X@X@X@XM.r.e.e.a.@X@X@X@X@X@XA.A.A.A.A.A.A.A.A.A.A.A.A.A.A.A.A.A.A.A.A.A.A.@X@X@X@X6.q.M.y.y.@X@X@X@X@X@X@X@X@X",
"@X@X@X@X@X@XA.Y.Y.Y.A.A.A.@X@X@X@X@XA.A.Y.A.A.A.A.A.A.A.A.A.A.A.A.A.A.A.b.L.N.@X@X@X@X@XA.Y.A.A.A.A.@X@X@X@X@X@X@X@X",
"@X@X@X@X@X@XA.A.A.A.A.A.A.@X@X@X@X@X@X&.;.p.A.b.A.A.A.A.A.A.A.A.A.b.b.y.5.%.@X@X@X@XA.A.A.A.A.A.A.A.@X@X@X@X@X@X@X@X",
"@X@X@X@X@X@XA.A.A.A.A.A.A.@X@X@X@X@X@X@X^ ..%.4.y.A.A.A.A.A.A.A.A.w.*.X._ ! @X@X@X@XA.A.A.A.A.A.A.A.@X@X@X@X@X@X@X@X",
"@X@X@X@X@X@XA.A.A.A.L.@X@X@X@X@X@X@X@X@X! ! ! ( @X@X@X@X@X@X@X@X@X' ! ! ! ! @X@X@X@X@X@XA.A.A.A.A.A.@X@X@X@X@X@X@X@X",
"@X@X@X@X@X@X@X@XM.M.@X@X@X@X@X@X@X@X@X@X! ! ! ! @X@X@X@X@X@X@X@X@X! ! ! ! ! @X@X@X@X@X@X@XA.A.A.A.@X@X@X@X@X@X@X@X@X",
"@X@X@X@X@X@X@X@X@X@X@X@X@X@X@X@X@X@X@X@X! ! ! ! @X@X@X@X@X@X@X@X@X! ! ! ! ! @X@X@X@X@X@X@X@X@X@X@X@X@X@X@X@X@X@X@X@X",
"@X@X@X@X@X@X@X@X@X@X@X@X@X@X@X@X@X@X@X@X! ! ! ! @X@X@X@X@X@X@X@X@X! ! ! ! ! @X@X@X@X@X@X@X@X@X@X@X@X@X@X@X@X@X@X@X@X",
"@X@X@X@X@X@X@X@X@X@X@X@X@X@X@X@X@X@X@X@X! ! ! ! @X@X@X@X@X@X@X@X@X! ! ! ! ! @X@X@X@X@X@X@X@X@X@X@X@X@X@X@X@X@X@X@X@X",
"@X@X@X@X@X@X@X@X@X@X@X@X@X@X@X@X@X@X@X@X! ! ! ! @X@X@X@X@X@X@X@X@X! ! ! ! ! @X@X@X@X@X@X@X@X@X@X@X@X@X@X@X@X@X@X@X@X",
"@X@X@X@X@X@X@X@X@X@X@X@X@X@X@X@X@X@X@X@X! ! ! ! @X@X@X@X@X@X@X@X@X! ! ! ! ! @X@X@X@X@X@X@X@X@X@X@X@X@X@X@X@X@X@X@X@X",
"@X@X@X@X@X@X@X@X@X@X@X@X@X@X@X@X@X@X@X@X! ! ! ! @X@X@X@X@X@X@X@X@X! ! ! ! ! @X@X@X@X@X@X@X@X@X@X@X@X@X@X@X@X@X@X@X@X",
"@X@X@X@X@X@X@X@X@X@X@X@X@X@X@X@X@X@X@X@X! ! ! ! @X@X@X@X@X@X@X@X@X! ! ! ! ! @X@X@X@X@X@X@X@X@X@X@X@X@X@X@X@X@X@X@X@X",
"@X@X@X@X@X@X@X@X@X@X@X@X@X@X@X@X@X@X@X@X! ! ! ! @X@X@X@X@X@X@X@X@X! ! ! ! ! @X@X@X@X@X@X@X@X@X@X@X@X@X@X@X@X@X@X@X@X",
"@X@X@X@X@X@X@X@X@X@X@X@X@X@X@X@X@X@X@X@XE E E E @X@X@X@X@X@X@X@X@XW W W W W @X@X@X@X@X@X@X@X@X@X@X@X@X@X@X@X@X@X@X@X",
"@X@X@X@X@X@X@X@X@X@X@X@X@X@X@X@X@X@X@X@X$ $ @ # + o @X@X@X@X@X@X@X$ $ $ $ # O o @X@X@X@X@X@X@X@X@X@X@X@X@X@X@X@X@X@X",
"@X@X@X@X@X@X@X@X@X@X@X@X@X@X@X@X@X@X@X@X      o o o @X@X@X@X@X@X@X        o o o o @X@X@X@X@X@X@X@X@X@X@X@X@X@X@X@X@X",
"@X@X@X@X@X@X@X@X@X@X@X@X@X@X@X@X@X@X@X@Xo o o o o o @X@X@X@X@X@X@Xo o o o o o o o @X@X@X@X@X@X@X@X@X@X@X@X@X@X@X@X@X",
"@X@X@X@X@X@X@X@X@X@X@X@X@X@X@X@X@X@X@X@Xo o o o o o @X@X@X@X@X@X@Xo o o o o o o o @X@X@X@X@X@X@X@X@X@X@X@X@X@X@X@X@X",
"@X@X@X@X@X@X@X@X@X@X@X@X@X@X@X@X@X@X@X@X@X@X@X@X@X@X@X@X@X@X@X@X@X@X@X@X@X@X@X@X@X@X@X@X@X@X@X@X@X@X@X@X@X@X@X@X@X@X",
"@X@X@X@X@X@X@X@X@X@X@X@X@X@X@X@X@X@X@X@X@X@X@X@X@X@X@X@X@X@X@X@X@X@X@X@X@X@X@X@X@X@X@X@X@X@X@X@X@X@X@X@X@X@X@X@X@X@X",
"@X@X@X@X@X@X@X@X@X@X@X@X@X@X@X@X@X@X@X@X@X@X@X@X@X@X@X@X@X@X@X@X@X@X@X@X@X@X@X@X@X@X@X@X@X@X@X@X@X@X@X@X@X@X@X@X@X@X",
"@X@X@X@X@X@X@X@X@X@X@X@X@X@X@X@X@X@X@X@X@X@X@X@X@X@X@X@X@X@X@X@X@X@X@X@X@X@X@X@X@X@X@X@X@X@X@X@X@X@X@X@X@X@X@X@X@X@X",
"@X@X@X@X@X@X@X@X@X@X@X@X@X@X@X@X@X@X@X@X@X@X@X@X@X@X@X@X@X@X@X@X@X@X@X@X@X@X@X@X@X@X@X@X@X@X@X@X@X@X@X@X@X@X@X@X@X@X"
};
